<svg width="104" height="135" viewBox="0 0 104 135" fill="none" xmlns="http://www.w3.org/2000/svg">
<path d="M48.3643 112.957C48.5363 113.129 48.7275 113.268 48.9186 113.414C48.9903 113.471 49.0548 113.538 49.1337 113.588C49.277 113.689 49.4395 113.755 49.5924 113.839C49.7358 113.916 49.8696 114.004 50.0177 114.066C50.1778 114.135 50.3498 114.169 50.5147 114.221C50.6724 114.269 50.8229 114.326 50.983 114.362C51.3151 114.432 51.6545 114.465 52.0009 114.465H52.0033C52.0654 114.465 52.1204 114.448 52.1825 114.448C52.4644 114.439 52.744 114.417 53.014 114.362C53.2912 114.307 53.5516 114.219 53.812 114.123C53.8646 114.102 53.9172 114.097 53.9697 114.071C54.2636 113.951 54.5456 113.796 54.8084 113.622C54.8227 113.614 54.8347 113.607 54.849 113.598C55.1405 113.407 55.4081 113.187 55.6494 112.941L102.495 66.1003C104.502 64.0933 104.502 60.8413 102.495 58.8343C100.488 56.8272 97.2358 56.8273 95.2287 58.8343L57.1383 96.918V5.13705C57.1383 2.30092 54.8373 0 52.0012 0C49.1651 0 46.8642 2.30092 46.8642 5.13705V96.9241L8.77369 58.8263C6.76668 56.8193 3.51474 56.8193 1.50767 58.8263C-0.499401 60.8333 -0.49934 64.0853 1.50767 66.0923L48.3643 112.957ZM98.8631 124.221H5.13705C2.30092 124.221 0 126.522 0 129.358C0 132.194 2.30092 134.495 5.13705 134.495H98.857C101.693 134.495 103.994 132.194 103.994 129.358C103.994 126.522 101.696 124.221 98.8594 124.221H98.8631Z" fill="black"/>
</svg>
